<svg width="29" height="36" viewBox="0 0 29 36" fill="none" xmlns="http://www.w3.org/2000/svg">
<path d="M23.8984 19.0045C23.9475 24.301 28.5452 26.0637 28.5959 26.0862C28.5571 26.2102 27.8615 28.5981 26.1739 31.0641C24.7152 33.1962 23.2009 35.3204 20.8161 35.3649C18.4727 35.4077 17.7191 33.9749 15.0396 33.9749C12.3609 33.9749 11.5239 35.3204 9.30531 35.4077C7.00305 35.495 5.24987 33.1018 3.77898 30.9779C0.773527 26.6325 -1.52338 18.6988 1.56067 13.3435C3.09269 10.684 5.83107 9.00014 8.803 8.95675C11.0636 8.91365 13.1974 10.4775 14.5792 10.4775C15.9602 10.4775 18.5532 8.59671 21.2792 8.8728C22.4205 8.92041 25.6237 9.3337 27.6806 12.3448C27.5152 12.4476 23.8587 14.5763 23.8984 19.0045ZM19.4942 5.99835C20.7163 4.51901 21.539 2.45903 21.3147 0.410034C19.5528 0.480747 17.4224 1.58399 16.1589 3.06276C15.0263 4.37195 14.0346 6.46799 14.302 8.47641C16.2659 8.62854 18.2718 7.47854 19.4942 5.99835Z" fill="white"/>
</svg>
